<?xml version="1.0" encoding="iso-8859-1"?>
<!-- Generator: Adobe Illustrator 18.0.0, SVG Export Plug-In . SVG Version: 6.00 Build 0)  -->
<!DOCTYPE svg PUBLIC "-//W3C//DTD SVG 1.1//EN" "http://www.w3.org/Graphics/SVG/1.1/DTD/svg11.dtd">
<svg xmlns="http://www.w3.org/2000/svg" xmlns:xlink="http://www.w3.org/1999/xlink" version="1.1" id="Capa_1" x="0px" y="0px" viewBox="0 0 193.642 193.642" style="enable-background:new 0 0 193.642 193.642;" xml:space="preserve" width="512px" height="512px">
<path d="M160.767,63.059h-16.88V50.182c0-20.176-16.414-36.59-36.59-36.59c-0.824,0-1.653,0.03-2.485,0.089  C98.713,5.228,88.783,0,78.209,0c-15.435,0-28.66,10.918-31.97,25.605c-9.054,4.712-14.864,14.072-14.864,24.577v108.742  l-5.813,25.555c-0.506,2.225,0.028,4.559,1.451,6.342c1.423,1.783,3.581,2.822,5.862,2.822h109.513c2.281,0,4.439-1.039,5.862-2.822  c1.423-1.783,1.957-4.117,1.451-6.342l-3.916-17.212h14.982c4.142,0,7.5-3.358,7.5-7.5V70.559  C168.267,66.416,164.909,63.059,160.767,63.059z M55.269,38.041c2.926-0.923,4.994-3.534,5.223-6.593  C61.183,22.225,68.964,15,78.209,15c6.865,0,12.996,3.86,16,10.073c1.515,3.134,4.985,4.814,8.388,4.055  c1.592-0.355,3.174-0.536,4.701-0.536c9.269,0,17.192,5.872,20.247,14.09H48.801C50.361,40.537,52.595,38.884,55.269,38.041z   M42.272,178.642l3.916-17.212c0.125-0.546,0.187-1.104,0.187-1.664V57.682h82.513v12.877v89.207c0,0.274,0.017,0.544,0.045,0.81  c0.006,0.061,0.02,0.12,0.027,0.18c0.028,0.21,0.061,0.418,0.105,0.622c0.004,0.017,0.005,0.034,0.009,0.051l3.915,17.212H42.272z   M153.267,152.266h-9.38V78.059h9.38V152.266z" fill="#FFFFFF"/>
<g>
</g>
<g>
</g>
<g>
</g>
<g>
</g>
<g>
</g>
<g>
</g>
<g>
</g>
<g>
</g>
<g>
</g>
<g>
</g>
<g>
</g>
<g>
</g>
<g>
</g>
<g>
</g>
<g>
</g>
</svg>
