<?xml version="1.0" encoding="iso-8859-1"?>
<!-- Generator: Adobe Illustrator 18.1.1, SVG Export Plug-In . SVG Version: 6.00 Build 0)  -->
<svg xmlns="http://www.w3.org/2000/svg" xmlns:xlink="http://www.w3.org/1999/xlink" version="1.1" id="Capa_1" x="0px" y="0px" viewBox="0 0 487.715 487.715" style="enable-background:new 0 0 487.715 487.715;" xml:space="preserve" width="512px" height="512px">
<g>
	<g>
		<path d="M35.111,174.455v182.869c0,72.011,58.379,130.39,130.399,130.39h119.807    c63.208,0,115.881-44.975,127.83-104.664h54.86c8.982,0,16.257-7.275,16.257-16.257V187.29c0-8.982-7.275-16.257-16.257-16.257    h-52.299v-6.324c0-3.26-0.252-6.462-0.488-9.657c-7.316,3.845-15.42,6.381-24.02,7.234c0.016,0.813,0.122,1.609,0.122,2.422    v20.159c-0.122,0.797-0.244,1.593-0.244,2.422v1.642c0,0.829,0.122,1.626,0.244,2.422v165.969    c0.008,58.453-47.552,106.005-106.005,106.005H165.51c-58.453,0-106.013-47.552-106.013-106.013V182.852    C50.865,181.243,42.679,178.382,35.111,174.455z M435.2,205.19c8.982,0,16.257,7.275,16.257,16.257v111.191    c0,8.982-7.275,16.257-16.257,16.257h-19.492V205.19H435.2z" fill="#FFFFFF"/>
		<path d="M178.272,451.372h94.283c56.672,0,102.615-45.943,102.615-102.615V189.534    c0-7.917-0.984-15.591-2.682-22.996c-6.633,1.569-13.428,2.455-20.362,2.455c-24.475,0-47.552-9.99-64.24-27.605    c-20.013,8.259-43.935,5.844-61.842-6.145c-22.451,16.688-52.454,21.866-79.254,13.396    c-16.672,22.476-42.699,35.725-70.873,35.774c-0.081,1.707-0.26,3.398-0.26,5.129v159.214    C75.657,405.429,121.599,451.372,178.272,451.372z M308.199,202.865c0.008,0,0.016,0,0.024,0c11.217,0,20.305,9.088,20.321,20.297    l0.171,151.736c0.016,11.226-9.071,20.33-20.297,20.346c-0.008,0-0.016,0-0.024,0c-11.217,0-20.305-9.088-20.321-20.297    l-0.171-151.736C287.886,211.985,296.973,202.873,308.199,202.865z M226.913,202.865c0.008,0,0.016,0,0.024,0    c11.217,0,20.305,9.088,20.321,20.297l0.171,151.736c0.016,11.226-9.071,20.33-20.297,20.346c-0.008,0-0.016,0-0.024,0    c-11.217,0-20.305-9.088-20.321-20.297l-0.171-151.736C206.6,211.985,215.688,202.873,226.913,202.865z M145.627,202.865    c0.008,0,0.016,0,0.024,0c11.217,0,20.305,9.088,20.321,20.297l0.171,151.736c0.016,11.226-9.071,20.33-20.297,20.346    c-0.008,0-0.016,0-0.024,0c-11.217,0-20.305-9.088-20.321-20.297l-0.171-151.736C125.314,211.985,134.402,202.873,145.627,202.865    z" fill="#FFFFFF"/>
		<path d="M35.558,155.914c7.169,4.82,15.274,8.332,23.939,10.331c5.235,1.211,10.665,1.91,16.257,1.91    c0.74,0,1.463-0.114,2.195-0.138c23.963-0.723,45.829-13.063,58.818-33.49l3.601-5.682l6.259,2.487    c24.898,9.892,53.819,4.877,73.905-12.51l5.21-4.503l5.292,4.389c15.225,12.616,37.627,14.867,55.071,5.552l5.885-3.146    l4.235,5.162c13.802,16.81,34.181,26.459,55.908,26.459c5.267,0,10.437-0.602,15.501-1.707c4.365-0.959,8.649-2.276,12.803-4.048    l1.609-0.691l2.609,0.081h0.008c1.666,0,3.308-0.089,4.934-0.252c8.576-0.845,16.509-3.902,23.248-8.559    c12.973-8.974,21.5-23.939,21.5-40.87c0-11.177-3.674-21.768-10.624-30.62l-1.081-1.374l-0.423-1.691    c-8.015-32.311-36.831-54.876-70.085-54.876c-21.72,0-42.098,9.649-55.908,26.459l-0.228,0.268l-4.007,4.893l-5.885-3.146    c-1.601-0.854-3.251-1.609-4.918-2.276c-10.868-4.373-23.028-4.812-34.571-0.854l-2.495,0.854l-3.999,1.374l-0.748-1.374    l-2.536-4.658C226.133,9.982,204.755,0,173.305,0c-30.572,0-49.958,8.104-61.021,25.507l-3.609,5.682l-6.259-2.487    c-8.584-3.414-17.55-5.145-26.654-5.145C35.884,23.548,3.451,55.981,3.451,95.852C3.451,120.856,16.212,142.925,35.558,155.914z" fill="#FFFFFF"/>
	</g>
</g>
<g>
</g>
<g>
</g>
<g>
</g>
<g>
</g>
<g>
</g>
<g>
</g>
<g>
</g>
<g>
</g>
<g>
</g>
<g>
</g>
<g>
</g>
<g>
</g>
<g>
</g>
<g>
</g>
<g>
</g>
</svg>
