<?xml version="1.0" encoding="iso-8859-1"?>
<!-- Generator: Adobe Illustrator 18.0.0, SVG Export Plug-In . SVG Version: 6.00 Build 0)  -->
<!DOCTYPE svg PUBLIC "-//W3C//DTD SVG 1.1//EN" "http://www.w3.org/Graphics/SVG/1.1/DTD/svg11.dtd">
<svg xmlns="http://www.w3.org/2000/svg" xmlns:xlink="http://www.w3.org/1999/xlink" version="1.1" id="Capa_1" x="0px" y="0px" viewBox="0 0 193.642 193.642" style="enable-background:new 0 0 193.642 193.642;" xml:space="preserve" width="512px" height="512px">
<g>
	<path d="M157.767,66.059h-16.88V50.182c0-20.176-16.414-36.59-36.59-36.59c-0.824,0-1.653,0.03-2.485,0.089   C95.712,5.228,85.781,0,75.207,0C59.775,0,46.55,10.919,43.238,25.605c-9.053,4.712-14.863,14.072-14.863,24.577v135.96   c0,4.142,3.357,7.5,7.5,7.5h97.513c4.143,0,7.5-3.358,7.5-7.5v-15.876h16.88c4.143,0,7.5-3.358,7.5-7.5V73.559   C165.267,69.416,161.91,66.059,157.767,66.059z M52.268,38.041c2.925-0.923,4.994-3.533,5.224-6.592   C58.183,22.225,65.965,15,75.207,15c6.864,0,12.996,3.86,16.002,10.075c1.516,3.134,4.988,4.813,8.389,4.053   c1.591-0.356,3.171-0.536,4.699-0.536c9.269,0,17.192,5.872,20.246,14.09H45.8C47.36,40.537,49.594,38.884,52.268,38.041z    M125.887,178.642H43.374V57.682h82.513v15.877v89.207V178.642z M150.267,155.266h-9.38V81.059h9.38V155.266z" fill="#FFFFFF"/>
	<path d="M84.63,87.212c-4.143,0-7.5,3.358-7.5,7.5v46.904c0,4.142,3.357,7.5,7.5,7.5c4.143,0,7.5-3.358,7.5-7.5V94.712   C92.13,90.57,88.773,87.212,84.63,87.212z" fill="#FFFFFF"/>
	<path d="M109.008,87.212c-4.143,0-7.5,3.358-7.5,7.5v46.904c0,4.142,3.357,7.5,7.5,7.5c4.143,0,7.5-3.358,7.5-7.5V94.712   C116.508,90.57,113.151,87.212,109.008,87.212z" fill="#FFFFFF"/>
	<path d="M60.254,87.212c-4.143,0-7.5,3.358-7.5,7.5v46.904c0,4.142,3.357,7.5,7.5,7.5s7.5-3.358,7.5-7.5V94.712   C67.754,90.57,64.397,87.212,60.254,87.212z" fill="#FFFFFF"/>
</g>
<g>
</g>
<g>
</g>
<g>
</g>
<g>
</g>
<g>
</g>
<g>
</g>
<g>
</g>
<g>
</g>
<g>
</g>
<g>
</g>
<g>
</g>
<g>
</g>
<g>
</g>
<g>
</g>
<g>
</g>
</svg>
