<?xml version="1.0" encoding="iso-8859-1"?>
<!-- Generator: Adobe Illustrator 16.0.0, SVG Export Plug-In . SVG Version: 6.00 Build 0)  -->
<!DOCTYPE svg PUBLIC "-//W3C//DTD SVG 1.1//EN" "http://www.w3.org/Graphics/SVG/1.1/DTD/svg11.dtd">
<svg xmlns="http://www.w3.org/2000/svg" xmlns:xlink="http://www.w3.org/1999/xlink" version="1.1" id="Capa_1" x="0px" y="0px" width="512px" height="512px" viewBox="0 0 29.832 29.832" style="enable-background:new 0 0 29.832 29.832;" xml:space="preserve">
<g>
	<g>
		<g id="Icons_10_">
			<g>
				<path d="M25.475,12.483c-0.584-0.608-1.402-0.958-2.246-0.958H21.25c-0.794,0.468-1.707,0.755-2.691,0.755      c-0.557,0-1.104-0.089-1.625-0.258c-1.082,1.341-2.737,2.186-4.533,2.186c-1.978,0-3.794-1.002-4.859-2.621      c-0.42-0.193-0.798-0.464-1.113-0.799c-0.172-0.03-0.334-0.084-0.497-0.135l-1.587,16.85c-0.542,0.207-0.851,0.435-0.851,0.675      c0,0.914,4.35,1.654,9.714,1.654c5.364,0,9.714-0.74,9.714-1.654c0-0.24-0.309-0.468-0.85-0.674l-0.246-2.618h1.104      c1.673,0,3.038-1.309,3.108-2.979l0.299-7.137C26.373,13.925,26.059,13.092,25.475,12.483z M23.541,21.8      c-0.014,0.329-0.282,0.586-0.611,0.586h-1.338l-0.785-8.35v-0.01h2.425c0.164,0,0.325,0.068,0.439,0.188      s0.177,0.283,0.169,0.448L23.541,21.8z" fill="#FFFFFF"/>
				<path d="M7.153,8.854c0.127,0,0.251-0.016,0.373-0.037C7.72,9.414,8.254,9.852,8.899,9.911c0.589,1.352,1.934,2.299,3.502,2.299      c1.824,0,3.347-1.282,3.725-2.995c0.608,0.653,1.472,1.066,2.434,1.066c1.844,0,3.34-1.494,3.34-3.338      c0-1.843-1.496-3.338-3.34-3.338c-0.58,0-1.119,0.162-1.597,0.423c0.058-0.213,0.099-0.435,0.099-0.666      c0-1.455-1.183-2.634-2.637-2.634c-0.735,0-1.399,0.303-1.876,0.789C11.893,0.602,10.827,0,9.616,0      C7.625,0,6.01,1.614,6.01,3.605c0,0.417,0.086,0.812,0.217,1.184C5.508,5.135,5.01,5.863,5.01,6.712      C5.01,7.895,5.97,8.854,7.153,8.854z" fill="#FFFFFF"/>
			</g>
		</g>
	</g>
</g>
<g>
</g>
<g>
</g>
<g>
</g>
<g>
</g>
<g>
</g>
<g>
</g>
<g>
</g>
<g>
</g>
<g>
</g>
<g>
</g>
<g>
</g>
<g>
</g>
<g>
</g>
<g>
</g>
<g>
</g>
</svg>
