<?xml version="1.0" encoding="iso-8859-1"?>
<!-- Generator: Adobe Illustrator 16.0.0, SVG Export Plug-In . SVG Version: 6.00 Build 0)  -->
<!DOCTYPE svg PUBLIC "-//W3C//DTD SVG 1.1//EN" "http://www.w3.org/Graphics/SVG/1.1/DTD/svg11.dtd">
<svg xmlns="http://www.w3.org/2000/svg" xmlns:xlink="http://www.w3.org/1999/xlink" version="1.1" id="Capa_1" x="0px" y="0px" width="512px" height="512px" viewBox="0 0 179.274 179.273" style="enable-background:new 0 0 179.274 179.273;" xml:space="preserve">
<g>
	<g>
		<path d="M139.713,85.806h-9.47c-3.728,0-6.187,1.682-6.187,4.345v36.409c0,1.865,1.511,3.375,3.375,3.375    c1.863,0,3.375-1.51,3.375-3.375V92.648c0.406-0.061,8.906-0.094,8.906-0.094c4.484,0,8.133,3.648,8.133,8.133v15.336    c0,1.916-0.678,3.777-1.912,5.242c-1.198,1.427-1.014,3.557,0.412,4.756c1.428,1.199,3.557,1.015,4.756-0.412    c2.253-2.68,3.494-6.084,3.494-9.586v-15.336C154.596,92.482,147.92,85.806,139.713,85.806z" fill="#FFFFFF"/>
		<path d="M139.713,71.971h-7.67c-0.41,0-0.822,0.01-1.236,0.028V58.47c0-0.439-0.019-0.881-0.053-1.324    c5.178-4.532,8.108-10.925,8.108-17.83c0-7.137-3.2-13.861-8.779-18.448c-5.01-4.118-11.378-5.98-17.712-5.233    c-4.379-3.988-9.998-6.262-15.847-6.412C91.85,3.417,84.812,0,77.354,0c-5.838,0-11.363,2.01-15.778,5.7    c-4.952-1.378-10.83-1.237-12.93-0.979c-9.454,1.106-17.385,6.428-21.19,14.128c-9.719,2.656-16.599,11.53-16.599,21.749    c0,6.664,2.984,12.974,8.074,17.255c-0.011,0.199-0.017,0.405-0.017,0.616v103.607c0,9.482,7.709,17.197,17.185,17.197h77.524    c9.477,0,17.186-7.715,17.186-17.197v-16.844c0.435-0.026,0.848-0.049,1.236-0.049c0.066,0,0.133-0.002,0.198-0.006l7.573-0.445    c15.779-0.055,28.599-12.912,28.599-28.709v-15.338C168.414,84.853,155.539,71.971,139.713,71.971z M161.664,116.023    c0,12.109-9.847,21.961-21.95,21.961c-0.066,0-10.803,0.439-11.658,0.514c-1,0.088-2.006,0.078-2.777,0.719    c-0.773,0.642-1.221,1.594-1.221,2.598v20.263c0,5.761-4.68,10.446-10.435,10.446H36.099c-5.754,0-10.435-4.686-10.435-10.446    V59.718H41.24c-0.013,1.846-0.036,3.145-0.061,4.493c-0.044,2.445-0.094,5.215-0.094,11.824c0,15.171,4.559,24.229,12.194,24.229    c4.531,0,7.593-2.07,9.361-6.33c1.546-3.727,2.235-9.562,2.235-18.924c0-1.319-0.017-2.638-0.033-3.929    c-0.05-3.912-0.125-9.718,0.729-11.361h30.156c1.865,0,3.375-1.511,3.375-3.375c0-1.864-1.51-3.375-3.375-3.375H65.23    c-1.675,0-3.171,0.618-4.325,1.788c-2.985,3.024-2.909,8.931-2.813,16.41c0.016,1.263,0.033,2.552,0.033,3.842    c0,8.204-0.563,13.548-1.72,16.336c-0.764,1.842-1.483,2.168-3.127,2.168c-2.676,0-5.444-6.538-5.444-17.479    c0-6.547,0.049-9.286,0.092-11.702c0.037-2.076,0.073-4.035,0.073-7.99c0-1.864-1.511-3.375-3.375-3.375H23.62    c-3.782-3.007-6.012-7.558-6.012-12.368c0-7.587,5.412-14.115,12.869-15.524c1.133-0.214,2.078-0.991,2.507-2.061    c2.52-6.292,9.134-10.858,16.85-11.632c5.779-0.62,10.383,0.951,11.254,1.303c1.255,0.507,2.688,0.216,3.647-0.737    c3.367-3.352,7.849-5.198,12.621-5.198c5.851,0,11.352,2.91,14.716,7.783c0.664,0.963,1.778,1.522,2.948,1.454    c5.137-0.26,10.148,1.77,13.757,5.568c0.796,0.838,1.965,1.208,3.101,0.987c4.928-0.973,10.002,0.319,13.922,3.541    c4.012,3.3,6.314,8.123,6.314,13.234c0,5.403-2.523,10.375-6.922,13.651h-8.195c-1.863,0-3.375,1.511-3.375,3.375    c0,1.864,1.512,3.375,3.375,3.375h7.062v14.26c0,2.316,0.658,4.8,5.553,4.8c1.027,0,10.102-0.057,10.102-0.057    c12.104,0,21.951,9.854,21.951,21.965L161.664,116.023L161.664,116.023z" fill="#FFFFFF"/>
	</g>
</g>
<g>
</g>
<g>
</g>
<g>
</g>
<g>
</g>
<g>
</g>
<g>
</g>
<g>
</g>
<g>
</g>
<g>
</g>
<g>
</g>
<g>
</g>
<g>
</g>
<g>
</g>
<g>
</g>
<g>
</g>
</svg>
