<?xml version="1.0" encoding="iso-8859-1"?>
<!-- Generator: Adobe Illustrator 18.1.1, SVG Export Plug-In . SVG Version: 6.00 Build 0)  -->
<svg xmlns="http://www.w3.org/2000/svg" xmlns:xlink="http://www.w3.org/1999/xlink" version="1.1" id="Capa_1" x="0px" y="0px" viewBox="0 0 23.359 23.359" style="enable-background:new 0 0 23.359 23.359;" xml:space="preserve" width="512px" height="512px">
<g>
	<path d="M16.855,10.724V9.958c0.192-0.253,0.308-0.567,0.308-0.909c0-0.549-0.299-1.026-0.737-1.288   c-0.008-0.012-0.013-0.023-0.021-0.034c0.187-0.222,0.303-0.505,0.303-0.816c0-0.706-0.574-1.278-1.279-1.278   c-0.457,0-0.855,0.242-1.081,0.602c-0.016-0.763-0.639-1.377-1.405-1.377c-0.265,0-0.511,0.078-0.723,0.207   c-0.216-0.129-0.467-0.207-0.736-0.207c-0.126,0-0.245,0.019-0.361,0.05c-0.235-0.226-0.555-0.365-0.908-0.365   c-0.662,0-1.204,0.486-1.302,1.121c-0.1-0.016-0.203-0.032-0.309-0.032c-0.783,0-1.45,0.466-1.757,1.133   C6.802,6.76,6.76,6.751,6.717,6.751c-0.375,0-0.712,0.143-0.965,0.371C5.675,7.108,5.595,7.097,5.51,7.097   c-0.639,0-1.156,0.518-1.156,1.157c0,0.268,0.095,0.51,0.247,0.706C4.296,9.147,4.096,9.444,4.096,9.784   c0,0.564,0.546,1.02,1.221,1.02c0.093,0,0.184-0.011,0.271-0.026v10.054h11.267v-2.228c1.332-0.024,2.407-1.112,2.407-2.451v-2.976   C19.264,11.839,18.188,10.749,16.855,10.724z M13.637,6.082c-0.204-0.61-0.61-0.61-1.017-0.61   C13.027,5.473,13.637,5.27,13.637,6.082z M8.962,6.082c-0.609,0-1.219,0.203-1.625,0.61C7.54,6.082,8.354,5.676,8.962,6.082z    M6.719,9.424c0.301,0,0.578-0.093,0.808-0.247c0.307,0.207,0.678,0.329,1.079,0.329c0.306,0,0.592-0.078,0.849-0.205   c0.054,0.094,0.118,0.18,0.188,0.263H6.508c-0.015-0.057-0.034-0.113-0.06-0.166C6.535,9.415,6.625,9.424,6.719,9.424z    M16.166,20.141L16.166,20.141H6.278v-9.73c0.046-0.05,0.088-0.101,0.123-0.159h5.729c0.268,0.282,0.641,0.461,1.061,0.461   c0.316,0,0.607-0.101,0.848-0.27c0.241,0.112,0.505,0.178,0.788,0.178c0.197,0,0.384-0.039,0.562-0.094   c0.088,0.016,0.177,0.027,0.268,0.027c0.18,0,0.35-0.032,0.509-0.089C16.165,10.465,16.165,20.141,16.166,20.141z M16.073,7.65   c-0.035,0.03-0.071,0.056-0.108,0.08c0.294-0.346,0.3-0.863-0.008-1.217c-0.309-0.352-0.824-0.414-1.204-0.169   c0.029-0.033,0.06-0.066,0.094-0.097c0.387-0.338,0.975-0.297,1.314,0.088C16.5,6.723,16.461,7.31,16.073,7.65z M18.486,16.151   c0,0.842-0.623,1.539-1.432,1.658v-6.293c0.809,0.119,1.432,0.817,1.432,1.658V16.151z M5.304,21.435h11.836v1.924H5.304V21.435z    M7.988,11.933h1.036v7.106H7.988V11.933z M10.63,11.933h1.034v7.106H10.63V11.933z M13.42,11.933h1.034v7.106H13.42V11.933z    M12.175,2.308c0.282,0,0.511,0.229,0.511,0.511S12.458,3.33,12.175,3.33c-0.282,0-0.511-0.229-0.511-0.511   S11.894,2.308,12.175,2.308z M11.665,0.255C11.665,0.114,11.779,0,11.92,0s0.255,0.114,0.255,0.255S12.061,0.51,11.92,0.51   S11.665,0.396,11.665,0.255z M13.937,1.879c0-0.237,0.192-0.429,0.429-0.429c0.237,0,0.429,0.192,0.429,0.429   s-0.192,0.429-0.429,0.429C14.128,2.308,13.937,2.116,13.937,1.879z M14.97,4.024c0.333,0,0.604,0.27,0.604,0.604   c0,0.333-0.27,0.604-0.604,0.604c-0.333,0-0.604-0.27-0.604-0.604C14.366,4.294,14.635,4.024,14.97,4.024z M9.024,2.349   c0-0.26,0.21-0.47,0.47-0.47s0.47,0.21,0.47,0.47s-0.21,0.47-0.47,0.47C9.234,2.819,9.024,2.609,9.024,2.349z M6.648,4.154   c0-0.255,0.207-0.462,0.462-0.462s0.462,0.207,0.462,0.462S7.365,4.616,7.109,4.616S6.648,4.409,6.648,4.154z" fill="#FFFFFF"/>
</g>
<g>
</g>
<g>
</g>
<g>
</g>
<g>
</g>
<g>
</g>
<g>
</g>
<g>
</g>
<g>
</g>
<g>
</g>
<g>
</g>
<g>
</g>
<g>
</g>
<g>
</g>
<g>
</g>
<g>
</g>
</svg>
