<?xml version="1.0" encoding="iso-8859-1"?>
<!-- Generator: Adobe Illustrator 18.0.0, SVG Export Plug-In . SVG Version: 6.00 Build 0)  -->
<!DOCTYPE svg PUBLIC "-//W3C//DTD SVG 1.1//EN" "http://www.w3.org/Graphics/SVG/1.1/DTD/svg11.dtd">
<svg xmlns="http://www.w3.org/2000/svg" xmlns:xlink="http://www.w3.org/1999/xlink" version="1.1" id="Capa_1" x="0px" y="0px" viewBox="0 0 297 297" style="enable-background:new 0 0 297 297;" xml:space="preserve" width="512px" height="512px">
<g>
	<path d="M50.65,157.448c-2.639,0-5.227,1.073-7.094,2.939c-1.867,1.866-2.941,4.455-2.941,7.094c0,2.639,1.074,5.228,2.941,7.095   c1.877,1.876,4.455,2.94,7.094,2.94c2.64,0,5.229-1.064,7.104-2.94c1.866-1.867,2.93-4.456,2.93-7.095   c0-2.639-1.063-5.227-2.93-7.094C55.879,158.521,53.3,157.448,50.65,157.448z" fill="#FFFFFF"/>
	<path d="M246.342,157.448c-2.64,0-5.23,1.073-7.095,2.939c-1.866,1.866-2.941,4.455-2.941,7.094c0,2.639,1.074,5.228,2.941,7.095   c1.865,1.876,4.455,2.94,7.095,2.94c2.639,0,5.227-1.064,7.094-2.94c1.865-1.867,2.939-4.456,2.939-7.095   c0-2.639-1.074-5.227-2.939-7.094C251.568,158.521,248.981,157.448,246.342,157.448z" fill="#FFFFFF"/>
	<path d="M50.65,256.247c2.649,0,5.229-1.064,7.095-2.941c1.876-1.866,2.94-4.445,2.94-7.094c0-2.639-1.063-5.227-2.94-7.096   c-1.866-1.865-4.445-2.939-7.095-2.939c-2.639,0-5.217,1.074-7.094,2.939c-1.867,1.868-2.941,4.457-2.941,7.096   c0,2.648,1.074,5.228,2.941,7.094C45.434,255.183,48.012,256.247,50.65,256.247z" fill="#FFFFFF"/>
	<path d="M246.342,256.247c2.639,0,5.227-1.064,7.094-2.941c1.865-1.866,2.939-4.455,2.939-7.094s-1.074-5.227-2.939-7.096   c-1.867-1.865-4.455-2.939-7.094-2.939c-2.64,0-5.23,1.074-7.095,2.939c-1.866,1.868-2.941,4.457-2.941,7.096   s1.074,5.228,2.941,7.094C241.112,255.183,243.702,256.247,246.342,256.247z" fill="#FFFFFF"/>
	<path d="M295.516,128.125c0-5.118-3.833-9.332-8.784-9.949V95.821c0-11.599-5.788-22.271-15.411-28.941l-8.54-58.299   C262.059,3.652,257.831,0,252.852,0h-34.368c-4.98,0-9.205,3.652-9.928,8.581l-8.542,58.299c-3.051,2.114-5.713,4.634-7.931,7.455   c-2.217-2.821-4.88-5.341-7.93-7.455l-8.536-58.299C174.895,3.653,170.667,0,165.687,0H131.31c-4.979,0-9.208,3.653-9.93,8.582   l-8.534,58.298c-3.05,2.114-5.713,4.634-7.93,7.455c-2.219-2.822-4.881-5.342-7.933-7.456L88.44,8.58   C87.718,3.652,83.492,0,78.513,0H44.148c-4.98,0-9.207,3.652-9.929,8.581L25.678,66.88c-9.623,6.672-15.411,17.343-15.411,28.941   v22.354c-4.95,0.618-8.782,4.833-8.782,9.949v158.84c0,5.542,4.493,10.035,10.035,10.035H285.48   c5.543,0,10.035-4.493,10.035-10.035V128.125z M275.447,138.158v59.352H21.553v-59.352H275.447z M204.67,95.821   c0-5.732,3.466-11.016,9.044-13.784c2.946-1.464,4.988-4.278,5.466-7.533l7.976-54.436h17.025l7.974,54.436   c0.477,3.255,2.52,6.069,5.465,7.533c5.578,2.769,9.043,8.051,9.043,13.784v22.269H204.67V95.821z M117.504,95.821   c0-5.733,3.465-11.016,9.043-13.784c2.946-1.463,4.99-4.278,5.466-7.534l7.971-54.435h17.031l7.973,54.436   c0.477,3.255,2.52,6.069,5.466,7.533c5.578,2.769,9.043,8.051,9.043,13.784v22.269h-61.992V95.821z M30.336,95.821   c0-5.732,3.465-11.016,9.043-13.785c2.946-1.463,4.988-4.277,5.466-7.532l7.975-54.436h17.021l7.978,54.437   c0.478,3.255,2.52,6.069,5.467,7.532c5.579,2.77,9.046,8.052,9.046,13.784v22.269H30.336V95.821z M275.447,276.932H21.553v-59.354   h253.895V276.932z" fill="#FFFFFF"/>
</g>
<g>
</g>
<g>
</g>
<g>
</g>
<g>
</g>
<g>
</g>
<g>
</g>
<g>
</g>
<g>
</g>
<g>
</g>
<g>
</g>
<g>
</g>
<g>
</g>
<g>
</g>
<g>
</g>
<g>
</g>
</svg>
