<?xml version="1.0" encoding="iso-8859-1"?>
<!-- Generator: Adobe Illustrator 18.1.1, SVG Export Plug-In . SVG Version: 6.00 Build 0)  -->
<svg xmlns="http://www.w3.org/2000/svg" xmlns:xlink="http://www.w3.org/1999/xlink" version="1.1" id="Capa_1" x="0px" y="0px" viewBox="0 0 56.623 56.623" style="enable-background:new 0 0 56.623 56.623;" xml:space="preserve" width="512px" height="512px">
<g>
	<g>
		<path d="M51.344,21.251h-7.862l0.012-7.241c1.361-1.531,2.134-3.505,2.134-5.586    C45.628,3.779,41.85,0,37.204,0c-1.534,0-3.034,0.427-4.335,1.209c-2.599-1.563-6.064-1.565-8.665-0.003    c-2.601-1.562-6.067-1.561-8.665,0.003C14.239,0.427,12.739,0,11.204,0C6.559,0,2.78,3.779,2.78,8.424    c0,2.08,0.771,4.052,2.131,5.582V46.35c0,0.119,0.008,0.238,0.025,0.356l0.368,2.558c0.021,0.141,0.053,0.279,0.097,0.415    c1.178,3.632,4.38,6.347,8.158,6.916c0.124,0.019,0.248,0.028,0.373,0.028h20.48c0.124,0,0.249-0.01,0.372-0.028    c3.951-0.595,7.199-3.466,8.277-7.313c0.028-0.104,0.051-0.21,0.066-0.317l0.287-1.993c0.017-0.117,0.025-0.234,0.025-0.353    v-0.204h0.653c5.376,0,9.75-4.374,9.75-9.75V23.751C53.844,22.37,52.724,21.251,51.344,21.251z M11.203,5    c0.956,0,1.845,0.39,2.504,1.099c0.946,1.018,2.716,1.018,3.662,0c1.316-1.414,3.687-1.418,5.006-0.003    c0.945,1.014,2.711,1.014,3.656,0c1.32-1.415,3.69-1.411,5.006,0.003c0.946,1.018,2.716,1.018,3.662,0    C35.358,5.39,36.247,5,37.203,5c1.888,0,3.424,1.536,3.424,3.424c0,1.019-0.45,1.977-1.235,2.632    c-1.353,1.128-3.475,1.003-4.693-0.307c-0.473-0.508-1.136-0.797-1.83-0.797s-1.357,0.289-1.83,0.797    c-1.316,1.418-3.689,1.418-5.006,0.004c-0.946-1.016-2.712-1.016-3.658,0c-1.316,1.414-3.688,1.414-5.005-0.004    c-0.946-1.016-2.715-1.016-3.661,0c-0.659,0.709-1.548,1.099-2.504,1.099c-0.256,0-0.494-0.027-0.713-0.073    c-0.659-0.139-1.152-0.449-1.478-0.722C8.231,10.4,7.782,9.442,7.782,8.424C7.779,6.536,9.315,5,11.203,5z M38.44,46.434    l-0.236,1.641c-0.568,1.831-2.113,3.201-3.998,3.549H14.138c-1.786-0.331-3.294-1.604-3.919-3.305L9.91,46.172V16.747    c0.083,0.013,0.167,0.018,0.25,0.027c0.137,0.018,0.272,0.035,0.41,0.046c0.086,0.006,0.172,0.008,0.259,0.011    c0.125,0.006,0.249,0.017,0.374,0.017c0.033,0,0.064-0.006,0.097-0.007c0.298-0.004,0.596-0.025,0.893-0.062    c0.13-0.016,0.258-0.038,0.388-0.06c0.212-0.036,0.422-0.08,0.631-0.132c0.108-0.026,0.217-0.048,0.324-0.079    c0.291-0.084,0.576-0.188,0.856-0.303c0.092-0.038,0.182-0.077,0.272-0.118c0.299-0.135,0.593-0.28,0.874-0.449    c2.6,1.564,6.065,1.565,8.665,0.003c2.601,1.563,6.067,1.562,8.665-0.003c0.281,0.17,0.576,0.315,0.876,0.45    c0.089,0.04,0.177,0.079,0.268,0.116c0.282,0.115,0.567,0.221,0.86,0.305c0.106,0.031,0.215,0.052,0.322,0.078    c0.208,0.052,0.418,0.096,0.629,0.131c0.13,0.022,0.259,0.045,0.39,0.061c0.296,0.036,0.593,0.057,0.892,0.062    c0.033,0,0.065,0.007,0.099,0.007c0.121,0,0.241-0.011,0.362-0.016c0.09-0.004,0.18-0.006,0.27-0.012    c0.13-0.01,0.258-0.026,0.387-0.042c0.089-0.011,0.178-0.016,0.267-0.029L38.44,46.434z M48.844,36.664    c0,2.619-2.131,4.75-4.75,4.75h-0.167V26.251h4.917V36.664z" fill="#FFFFFF"/>
		<path d="M15.946,21.51c-1.381,0-2.5,1.119-2.5,2.5v19.645c0,1.381,1.119,2.5,2.5,2.5s2.5-1.119,2.5-2.5    V24.01C18.446,22.629,17.327,21.51,15.946,21.51z" fill="#FFFFFF"/>
		<path d="M24.204,21.51c-1.381,0-2.5,1.119-2.5,2.5v19.645c0,1.381,1.119,2.5,2.5,2.5s2.5-1.119,2.5-2.5    V24.01C26.704,22.629,25.585,21.51,24.204,21.51z" fill="#FFFFFF"/>
		<path d="M32.461,21.51c-1.381,0-2.5,1.119-2.5,2.5v19.645c0,1.381,1.119,2.5,2.5,2.5    c1.381,0,2.5-1.119,2.5-2.5V24.01C34.961,22.629,33.842,21.51,32.461,21.51z" fill="#FFFFFF"/>
	</g>
</g>
<g>
</g>
<g>
</g>
<g>
</g>
<g>
</g>
<g>
</g>
<g>
</g>
<g>
</g>
<g>
</g>
<g>
</g>
<g>
</g>
<g>
</g>
<g>
</g>
<g>
</g>
<g>
</g>
<g>
</g>
</svg>
