<?xml version="1.0" encoding="iso-8859-1"?>
<!-- Generator: Adobe Illustrator 19.0.0, SVG Export Plug-In . SVG Version: 6.00 Build 0)  -->
<svg xmlns="http://www.w3.org/2000/svg" xmlns:xlink="http://www.w3.org/1999/xlink" version="1.1" id="Capa_1" x="0px" y="0px" viewBox="0 0 463 463" style="enable-background:new 0 0 463 463;" xml:space="preserve" width="512px" height="512px">
<g>
	<path d="M312.682,405.721c-8.604-15.242-17.5-31.004-17.5-70.221c0-24.317,10.414-42.628,23.598-65.81   c24.413-42.926,54.795-96.348,33.328-216.87C350.784,45.392,344.351,40,336.809,40H335v-0.5C335,22.131,320.869,8,303.5,8   c-4.503,0-8.885,0.97-12.945,2.84C283.271,3.885,273.715,0,263.5,0c-5.523,0-10.888,1.177-16,3.503   C242.388,1.177,237.024,0,231.5,0s-10.888,1.177-16,3.503C210.388,1.177,205.024,0,199.5,0c-10.215,0-19.771,3.885-27.055,10.84   C168.385,8.97,164.003,8,159.5,8C142.131,8,128,22.131,128,39.5V40h-1.809c-7.541,0-13.975,5.392-15.298,12.819   c-21.467,120.523,8.915,173.945,33.328,216.871c13.184,23.182,23.598,41.492,23.598,65.81c0,39.217-8.896,54.979-17.5,70.221   c-4.655,8.248-9.469,16.776-12.182,28.259c-1.672,7.08-0.045,14.409,4.464,20.108c4.482,5.664,11.19,8.912,18.405,8.912h140.989   c7.215,0,13.923-3.249,18.405-8.913c4.509-5.698,6.137-13.027,4.464-20.107C322.151,422.497,317.337,413.969,312.682,405.721z    M143,39.5c0-9.098,7.402-16.5,16.5-16.5c3.534,0,6.958,1.18,9.9,3.411c1.592,1.208,3.596,1.728,5.58,1.451   c1.979-0.279,3.765-1.337,4.961-2.938C184.653,18.617,191.782,15,199.5,15c4.214,0,8.328,1.15,12.227,3.421   c2.332,1.357,5.214,1.357,7.546,0C223.173,16.15,227.286,15,231.5,15s8.328,1.15,12.227,3.421c2.332,1.357,5.214,1.357,7.546,0   C255.173,16.15,259.286,15,263.5,15c7.718,0,14.847,3.617,19.559,9.925c1.196,1.601,2.982,2.658,4.961,2.938   c1.98,0.279,3.987-0.242,5.58-1.451c2.942-2.231,6.366-3.411,9.9-3.411c9.098,0,16.5,7.402,16.5,16.5V40H143V39.5z    M308.637,444.779c-1.62,2.047-4.041,3.221-6.643,3.221H161.006c-2.602,0-5.022-1.174-6.642-3.221   c-1.647-2.081-2.241-4.761-1.628-7.351c2.223-9.412,6.126-16.327,10.646-24.335c9.111-16.141,19.438-34.436,19.438-77.594   c0-28.284-11.844-49.11-25.559-73.226c-23.219-40.826-52.116-91.637-31.599-206.824c0.042-0.235,0.295-0.45,0.53-0.45h210.618   c0.236,0,0.488,0.214,0.53,0.45c20.517,115.188-8.38,165.998-31.599,206.824c-13.715,24.115-25.559,44.941-25.559,73.226   c0,43.158,10.327,61.453,19.438,77.594c4.52,8.008,8.423,14.923,10.646,24.335C310.878,440.019,310.284,442.698,308.637,444.779z" fill="#FFFFFF"/>
	<path d="M315.313,176.223c-4.021-0.998-8.089,1.447-9.089,5.467c-1.288,5.174-2.816,10.349-4.542,15.382   c-1.344,3.918,0.743,8.184,4.661,9.527c0.806,0.276,1.626,0.407,2.434,0.407c3.116,0,6.027-1.957,7.094-5.069   c1.866-5.439,3.517-11.033,4.909-16.624C321.78,181.293,319.333,177.224,315.313,176.223z" fill="#FFFFFF"/>
	<path d="M263.182,335.5c0-32.778,14.122-57.611,27.782-81.63c3.425-6.023,6.968-12.253,10.444-18.885   c1.923-3.669,0.508-8.202-3.161-10.125c-3.667-1.924-8.202-0.508-10.125,3.16c-3.357,6.405-6.835,12.521-10.2,18.438   c-14.622,25.711-29.741,52.297-29.741,89.042c0,34.299,6.172,56.619,12.962,72.5h-59.288c6.79-15.88,12.962-38.202,12.962-72.5   c0-36.747-15.12-63.334-29.743-89.046C168.85,217.924,152.096,188.46,150.741,135h161.515c-0.14,5.416-0.443,10.714-0.906,15.821   c-0.374,4.125,2.667,7.772,6.792,8.146c4.122,0.368,7.772-2.668,8.146-6.793c0.716-7.896,1.072-16.202,1.058-24.687   c-0.007-4.138-3.362-7.488-7.5-7.488H143.154c-4.138,0-7.494,3.351-7.5,7.488c-0.099,62.234,19.283,96.313,36.383,126.382   c13.658,24.016,27.782,48.85,27.782,81.63c0,39.774-8.807,61.796-16.48,76.537c-1.21,2.325-1.119,5.113,0.241,7.354   c1.36,2.241,3.791,3.609,6.412,3.609h83.018c2.621,0,5.052-1.368,6.412-3.609c1.36-2.24,1.451-5.028,0.241-7.354   C271.989,397.295,263.182,375.271,263.182,335.5z" fill="#FFFFFF"/>
	<path d="M234.197,162.2c-1.4,1.39-2.2,3.319-2.2,5.3c0,1.97,0.8,3.91,2.2,5.3c1.4,1.4,3.33,2.2,5.3,2.2c1.97,0,3.91-0.8,5.31-2.2   c1.39-1.4,2.19-3.33,2.19-5.3c0-1.971-0.8-3.91-2.19-5.3c-1.4-1.4-3.33-2.2-5.31-2.2C237.527,160,235.597,160.8,234.197,162.2z" fill="#FFFFFF"/>
	<path d="M178.197,154.2c-1.4,1.39-2.2,3.319-2.2,5.3c0,1.979,0.8,3.91,2.2,5.3c1.39,1.4,3.33,2.2,5.3,2.2c1.98,0,3.91-0.8,5.31-2.2   c1.39-1.39,2.19-3.33,2.19-5.3c0-1.971-0.8-3.91-2.19-5.3c-1.4-1.4-3.33-2.2-5.31-2.2C181.527,152,179.597,152.8,178.197,154.2z" fill="#FFFFFF"/>
	<path d="M282.197,154.2c-1.4,1.39-2.2,3.319-2.2,5.3c0,1.979,0.8,3.91,2.2,5.3c1.39,1.4,3.33,2.2,5.3,2.2c1.98,0,3.91-0.8,5.31-2.2   c1.39-1.39,2.19-3.33,2.19-5.3c0-1.971-0.8-3.91-2.19-5.3c-1.4-1.4-3.33-2.2-5.31-2.2C285.527,152,283.597,152.8,282.197,154.2z" fill="#FFFFFF"/>
	<path d="M258.197,194.2c-1.4,1.39-2.2,3.329-2.2,5.3c0,1.97,0.8,3.899,2.2,5.3c1.4,1.4,3.33,2.2,5.3,2.2c1.97,0,3.91-0.8,5.31-2.2   c1.39-1.39,2.19-3.33,2.19-5.3c0-1.971-0.8-3.91-2.19-5.3c-1.4-1.4-3.34-2.2-5.31-2.2C261.527,192,259.597,192.8,258.197,194.2z" fill="#FFFFFF"/>
	<path d="M202.197,194.2c-1.4,1.39-2.2,3.319-2.2,5.3c0,1.97,0.8,3.91,2.2,5.3c1.4,1.4,3.33,2.2,5.3,2.2c1.98,0,3.91-0.8,5.31-2.2   c1.39-1.4,2.19-3.33,2.19-5.3c0-1.971-0.8-3.91-2.19-5.3c-1.4-1.4-3.33-2.2-5.31-2.2C205.527,192,203.597,192.8,202.197,194.2z" fill="#FFFFFF"/>
</g>
<g>
</g>
<g>
</g>
<g>
</g>
<g>
</g>
<g>
</g>
<g>
</g>
<g>
</g>
<g>
</g>
<g>
</g>
<g>
</g>
<g>
</g>
<g>
</g>
<g>
</g>
<g>
</g>
<g>
</g>
</svg>
