<?xml version="1.0" encoding="iso-8859-1"?>
<!-- Generator: Adobe Illustrator 18.1.1, SVG Export Plug-In . SVG Version: 6.00 Build 0)  -->
<svg xmlns="http://www.w3.org/2000/svg" xmlns:xlink="http://www.w3.org/1999/xlink" version="1.1" id="Capa_1" x="0px" y="0px" viewBox="0 0 611.999 611.999" style="enable-background:new 0 0 611.999 611.999;" xml:space="preserve" width="512px" height="512px">
<g>
	<g>
		<path d="M516.732,185.158h-96.84v-5.54c13.705-11.01,22.317-26.529,22.317-43.762c0-25.439-18.631-47.627-45.814-56.368    C392.827,35.161,348.5,0,294.51,0c-29.561,0-57.022,10.455-76.208,28.501c-11.307-7.026-24.963-10.891-39.214-10.891    c-36.895,0-66.912,25.508-66.912,56.853c0,2.131,0.139,4.251,0.416,6.342c-25.142,9.494-42.088,30.79-42.088,55.05    c0,17.233,8.612,32.762,22.317,43.772v407.597c0,13.686,11.089,24.775,24.775,24.775h277.509    c13.686,0,24.775-11.089,24.775-24.775v-41.939h22.674c54.554,0,98.941-44.387,98.941-98.941V209.933    C541.506,196.257,530.417,185.158,516.732,185.158z M306.482,278.341c-13.686,0-24.775,11.089-24.775,24.775v192.62H227.41    v-192.62c0-13.686-11.089-24.775-24.775-24.775s-24.775,11.089-24.775,24.775v192.62h-35.498V196.237h227.959v299.499h-39.075    v-192.62C331.257,289.431,320.167,278.341,306.482,278.341z M370.332,562.45H142.373v-17.164h227.959V562.45z M491.957,446.345    c0,27.233-22.159,49.391-49.391,49.391h-22.675V234.708h72.065L491.957,446.345L491.957,446.345z" fill="#FFFFFF"/>
	</g>
	<g>
	</g>
	<g>
	</g>
	<g>
	</g>
	<g>
	</g>
	<g>
	</g>
	<g>
	</g>
	<g>
	</g>
	<g>
	</g>
	<g>
	</g>
	<g>
	</g>
	<g>
	</g>
	<g>
	</g>
	<g>
	</g>
	<g>
	</g>
	<g>
	</g>
</g>
<g>
</g>
<g>
</g>
<g>
</g>
<g>
</g>
<g>
</g>
<g>
</g>
<g>
</g>
<g>
</g>
<g>
</g>
<g>
</g>
<g>
</g>
<g>
</g>
<g>
</g>
<g>
</g>
<g>
</g>
</svg>
