<?xml version="1.0" encoding="iso-8859-1"?>
<!-- Generator: Adobe Illustrator 19.0.0, SVG Export Plug-In . SVG Version: 6.00 Build 0)  -->
<svg xmlns="http://www.w3.org/2000/svg" xmlns:xlink="http://www.w3.org/1999/xlink" version="1.1" id="Capa_1" x="0px" y="0px" viewBox="0 0 511 511" style="enable-background:new 0 0 511 511;" xml:space="preserve" width="512px" height="512px">
<g>
	<path d="M211.5,176.001c-21.78,0-39.5,17.72-39.5,39.5v159.997c0,4.142,3.358,7.5,7.5,7.5s7.5-3.358,7.5-7.5V215.501   c0-13.509,10.991-24.5,24.5-24.5s24.5,10.991,24.5,24.5v16.004c0,4.142,3.358,7.5,7.5,7.5s7.5-3.358,7.5-7.5v-16.004   C251,193.721,233.28,176.001,211.5,176.001z" fill="#FFFFFF"/>
	<path d="M243.5,304c-4.142,0-7.5,3.358-7.5,7.5v96c0,13.509-10.991,24.5-24.5,24.5S187,421.009,187,407.5   c0-4.142-3.358-7.5-7.5-7.5s-7.5,3.358-7.5,7.5c0,21.78,17.72,39.5,39.5,39.5s39.5-17.72,39.5-39.5v-96   C251,307.358,247.642,304,243.5,304z" fill="#FFFFFF"/>
	<path d="M243.5,255.999c-4.142,0-7.5,3.358-7.5,7.5v16.004c0,4.142,3.358,7.5,7.5,7.5s7.5-3.358,7.5-7.5v-16.004   C251,259.357,247.642,255.999,243.5,255.999z" fill="#FFFFFF"/>
	<path d="M307.5,176.001c-21.78,0-39.5,17.72-39.5,39.5v159.997c0,4.142,3.358,7.5,7.5,7.5s7.5-3.358,7.5-7.5V215.501   c0-13.509,10.991-24.5,24.5-24.5s24.5,10.991,24.5,24.5v16.004c0,4.142,3.358,7.5,7.5,7.5s7.5-3.358,7.5-7.5v-16.004   C347,193.721,329.28,176.001,307.5,176.001z" fill="#FFFFFF"/>
	<path d="M339.5,304c-4.142,0-7.5,3.358-7.5,7.5v96c0,13.509-10.991,24.5-24.5,24.5S283,421.009,283,407.5   c0-4.142-3.358-7.5-7.5-7.5s-7.5,3.358-7.5,7.5c0,21.78,17.72,39.5,39.5,39.5s39.5-17.72,39.5-39.5v-96   C347,307.358,343.642,304,339.5,304z" fill="#FFFFFF"/>
	<path d="M339.5,255.999c-4.142,0-7.5,3.358-7.5,7.5v16.004c0,4.142,3.358,7.5,7.5,7.5s7.5-3.358,7.5-7.5v-16.004   C347,259.357,343.642,255.999,339.5,255.999z" fill="#FFFFFF"/>
	<path d="M115.5,176.001c-21.78,0-39.5,17.72-39.5,39.5v159.997c0,4.142,3.358,7.5,7.5,7.5s7.5-3.358,7.5-7.5V215.501   c0-13.509,10.991-24.5,24.5-24.5s24.5,10.991,24.5,24.5v16.004c0,4.142,3.358,7.5,7.5,7.5s7.5-3.358,7.5-7.5v-16.004   C155,193.721,137.28,176.001,115.5,176.001z" fill="#FFFFFF"/>
	<path d="M147.5,304c-4.142,0-7.5,3.358-7.5,7.5v96c0,13.509-10.991,24.5-24.5,24.5S91,421.009,91,407.5c0-4.142-3.358-7.5-7.5-7.5   s-7.5,3.358-7.5,7.5c0,21.78,17.72,39.5,39.5,39.5s39.5-17.72,39.5-39.5v-96C155,307.358,151.642,304,147.5,304z" fill="#FFFFFF"/>
	<path d="M147.5,255.999c-4.142,0-7.5,3.358-7.5,7.5v16.004c0,4.142,3.358,7.5,7.5,7.5s7.5-3.358,7.5-7.5v-16.004   C155,259.357,151.642,255.999,147.5,255.999z" fill="#FFFFFF"/>
	<path d="M419.5,192H379v-38.858c4.899-4.31,8-10.619,8-17.641c0-7.041-3.117-13.364-8.039-17.675   c-0.807-23.147-18.244-42.138-40.71-45.347C338.75,69.503,339,66.504,339,63.5C339,32.897,314.103,8,283.5,8   c-10.418,0-20.649,2.971-29.433,8.463C242.437,5.931,227.26,0,211.5,0c-19.702,0-38.275,9.297-50.212,24.717   C152.42,19.054,142.099,16,131.5,16C100.897,16,76,40.897,76,71.5c0,1.042,0.031,2.084,0.094,3.134   c-18.442,6.291-31.37,23.377-32.061,43.197C39.115,122.141,36,128.462,36,135.501c0,7.023,3.101,13.332,8,17.641V447.5   c0,14.786,10.24,27.225,24,30.598v9.402c0,12.958,10.542,23.5,23.5,23.5h240c12.958,0,23.5-10.542,23.5-23.5v-9.402   c13.76-3.373,24-15.812,24-30.598V415h40.5c30.603,0,55.5-24.897,55.5-55.5v-112C475,216.897,450.103,192,419.5,192z M379,239h40.5   c4.687,0,8.5,3.813,8.5,8.5v112c0,4.687-3.813,8.5-8.5,8.5H379V239z M51,135.501c0-4.687,3.813-8.5,8.5-8.5h304   c4.687,0,8.5,3.813,8.5,8.5s-3.813,8.5-8.5,8.5h-304C54.813,144.001,51,140.188,51,135.501z M85.67,87.602   c1.96-0.356,3.698-1.477,4.83-3.116c1.132-1.639,1.566-3.661,1.206-5.62C91.231,76.282,91,73.873,91,71.5   C91,49.168,109.168,31,131.5,31c9.782,0,19.248,3.575,26.652,10.067c1.685,1.478,3.941,2.125,6.156,1.762   c2.212-0.362,4.146-1.694,5.272-3.632C178.257,24.271,194.319,15,211.5,15c13.748,0,26.922,5.924,36.145,16.253   c2.669,2.991,7.217,3.353,10.327,0.823C265.271,26.138,274.099,23,283.5,23c22.332,0,40.5,18.168,40.5,40.5   c0,4.621-0.824,9.245-2.45,13.743c-0.863,2.389-0.458,5.053,1.075,7.078c1.534,2.024,3.989,3.14,6.522,2.952   c0.557-0.041,1.104-0.111,1.649-0.186c0.253-0.035,0.6-0.083,0.704-0.086c15.339,0,28.221,10.685,31.617,25.001H59.882   C62.803,99.707,72.753,89.948,85.67,87.602z M364,447.5c0,9.098-7.402,16.5-16.5,16.5h-24c-4.142,0-7.5,3.358-7.5,7.5   s3.358,7.5,7.5,7.5H340v8.5c0,4.687-3.813,8.5-8.5,8.5h-240c-4.687,0-8.5-3.813-8.5-8.5V479h160.5c4.142,0,7.5-3.358,7.5-7.5   s-3.358-7.5-7.5-7.5h-168c-9.098,0-16.5-7.402-16.5-16.5V158.988c0.167,0.004,0.332,0.013,0.5,0.013h304   c0.168,0,0.333-0.009,0.5-0.013V447.5z M460,359.5c0,22.332-18.168,40.5-40.5,40.5H379v-17h40.5c12.958,0,23.5-10.542,23.5-23.5   v-112c0-12.958-10.542-23.5-23.5-23.5H379v-17h40.5c22.332,0,40.5,18.168,40.5,40.5V359.5z" fill="#FFFFFF"/>
	<path d="M283.5,55c4.687,0,8.5,3.813,8.5,8.5c0,4.142,3.358,7.5,7.5,7.5s7.5-3.358,7.5-7.5c0-12.958-10.542-23.5-23.5-23.5   c-4.142,0-7.5,3.358-7.5,7.5S279.358,55,283.5,55z" fill="#FFFFFF"/>
	<path d="M211.5,47c9.098,0,16.5,7.402,16.5,16.5c0,4.142,3.358,7.5,7.5,7.5s7.5-3.358,7.5-7.5c0-17.369-14.131-31.5-31.5-31.5   c-4.142,0-7.5,3.358-7.5,7.5S207.358,47,211.5,47z" fill="#FFFFFF"/>
	<path d="M291.5,464h-16c-4.142,0-7.5,3.358-7.5,7.5s3.358,7.5,7.5,7.5h16c4.142,0,7.5-3.358,7.5-7.5S295.642,464,291.5,464z" fill="#FFFFFF"/>
</g>
<g>
</g>
<g>
</g>
<g>
</g>
<g>
</g>
<g>
</g>
<g>
</g>
<g>
</g>
<g>
</g>
<g>
</g>
<g>
</g>
<g>
</g>
<g>
</g>
<g>
</g>
<g>
</g>
<g>
</g>
</svg>
